HIERARCHY
ROOT Hips
{
	OFFSET 0.00000 0.00000 0.00000
	CHANNELS 6 Xposition Yposition Zposition Zrotation Yrotation Xrotation 
	JOINT LHipJoint
	{
		OFFSET 0 0 0
		CHANNELS 3 Zrotation Yrotation Xrotation
		JOINT LeftHip
		{
			OFFSET 1.53139 -1.83434 0.76626
			CHANNELS 3 Zrotation Yrotation Xrotation
			JOINT LeftKnee
			{
				OFFSET 2.56112 -7.03663 0.00000
				CHANNELS 3 Zrotation Yrotation Xrotation
				JOINT LeftAnkle
				{
					OFFSET 2.59983 -7.14299 0.00000
					CHANNELS 3 Zrotation Yrotation Xrotation
					JOINT LeftToe
					{
						OFFSET 0.13742 -0.37757 2.00054
						CHANNELS 3 Zrotation Yrotation Xrotation
						End Site
						{
							OFFSET 0.00000 -0.00000 1.02897
						}
					}
				}
			}
		}
	}
	JOINT RHipJoint
	{
		OFFSET 0 0 0
		CHANNELS 3 Zrotation Yrotation Xrotation
		JOINT RightHip
		{
			OFFSET -1.40122 -1.83435 0.76627
			CHANNELS 3 Zrotation Yrotation Xrotation
			JOINT RightKnee
			{
				OFFSET -2.54052 -6.98003 0.00000
				CHANNELS 3 Zrotation Yrotation Xrotation
				JOINT RightAnkle
				{
					OFFSET -2.63179 -7.23079 0.00000
					CHANNELS 3 Zrotation Yrotation Xrotation
					JOINT RightToe
					{
						OFFSET -0.24131 -0.66299 2.03908
						CHANNELS 3 Zrotation Yrotation Xrotation
						End Site
						{
							OFFSET -0.00000 -0.00000 1.07391
						}
					}
				}
			}
		}
	}
	JOINT lowerback
	{
		OFFSET 0 0 0
		CHANNELS 3 Zrotation Yrotation Xrotation
		JOINT Chest
		{
			OFFSET 0.01174 2.10302 -0.29778
			CHANNELS 3 Zrotation Yrotation Xrotation
			JOINT Chest2
			{
				OFFSET 0.00772 2.13227 -0.01247
				CHANNELS 3 Zrotation Yrotation Xrotation
				JOINT lowerneck
				{
					OFFSET 0 0 0
					CHANNELS 3 Zrotation Yrotation Xrotation
					JOINT Neck
					{
						OFFSET -0.09219 1.60848 0.31481
						CHANNELS 3 Zrotation Yrotation Xrotation
						JOINT Head
						{
							OFFSET 0.13974 1.65456 -0.31134
							CHANNELS 3 Zrotation Yrotation Xrotation
							End Site
							{
								OFFSET 0.04742 1.69515 -0.14578
							}
						}
					}
				}
				JOINT LeftCollar
				{
					OFFSET 0 0 0
					CHANNELS 3 Zrotation Yrotation Xrotation
					JOINT LeftShoulder
					{
						OFFSET 3.24909 1.02882 -0.23993
CHANNELS 3 Zrotation Xrotation Yrotation
						JOINT LeftElbow
						{
OFFSET 0 -5.329550 -0.000000
CHANNELS 3 Zrotation Xrotation Yrotation
							JOINT LeftWrist
							{
OFFSET 0 -3.692320 -0.000000
CHANNELS 3 Zrotation Xrotation Yrotation
								JOINT lhand
								{
									OFFSET 0 0 0
CHANNELS 3 Zrotation Xrotation Yrotation
									JOINT LFingers
									{
OFFSET 0 -0.536600 -0.000000
CHANNELS 3 Zrotation Xrotation Yrotation
										End Site
										{
OFFSET 0 -0.432620 -0.000000
										}
									}
								}
								JOINT LThumb
								{
OFFSET 0 0.000000 0.000000
CHANNELS 3 Zrotation Xrotation Yrotation
									End Site
									{
OFFSET 0 -0.439220 0.439220
									}
								}
							}
						}
					}
				}
				JOINT RightCollar
				{
					OFFSET 0 0 0
					CHANNELS 3 Zrotation Yrotation Xrotation
					JOINT RightShoulder
					{
						OFFSET -3.21387 0.93002 -0.34594
CHANNELS 3 Zrotation Xrotation Yrotation
						JOINT RightElbow
						{
OFFSET 0 -5.234310 0.000000
CHANNELS 3 Zrotation Xrotation Yrotation
							JOINT RightWrist
							{
OFFSET 0 -3.553010 -0.000000
CHANNELS 3 Zrotation Xrotation Yrotation
								JOINT rhand
								{
									OFFSET 0 0 0
CHANNELS 3 Zrotation Xrotation Yrotation
									JOINT RFingers
									{
OFFSET 0 -0.772520 -0.000000
CHANNELS 3 Zrotation Xrotation Yrotation
										End Site
										{
OFFSET 0 -0.622830 -0.000000
										}
									}
								}
								JOINT RThumb
								{
OFFSET 0 0.000000 0.000000
CHANNELS 3 Zrotation Xrotation Yrotation
									End Site
									{
OFFSET 0 -0.632340 0.632340
									}
								}
							}
						}
					}
				}
			}
		}
	}
}
MOTION
Frames: 11
Frame Time: 0.008333333333333333
10.439051 17.662163 5.282258 13.341495 69.779284 367.411967 0.000000 0.000000 0.000000 -16.430838 -5.223328 -3.139183 1.314817 7.262890 20.496631 0.117164 -4.483109 -6.415268 0.621535 -5.045139 -14.037416 0.000000 0.000000 0.000000 2.412272 0.943414 5.036534 -2.429991 -9.708937 28.039697 0.139841 -12.116497 -15.212209 -0.041387 1.127310 -3.101057 1.066683 3.155882 11.417755 -0.896092 4.310112 0.866777 -2.214761 2.101668 -5.334265 -7.652483 1.437187 -16.171079 0.964793 6.777370 41.895169 3.337317 2.226385 18.174961 0.000000 0.000000 0.000000 1.077415 5.420570 -5.459524 15.452555 -24.772796 3.413284 24.831727 13.562728 -19.679603 0.000000 0.000000 0.000000 -7.125000 0.000000 0.000000 -3.586966 51.453794 0.570894 0.000000 0.000000 0.000000 -6.660501 4.067352 2.701739 -19.576444 -30.128643 -5.317126 -16.752252 1.381403 -9.343357 0.000000 0.000000 0.000000 7.125000 0.000000 0.000000 7.292756 20.267551 4.349921
10.891838 17.759186 4.570016 17.466604 73.119084 371.847644 0.000000 0.000000 0.000000 -19.450376 -2.393667 -4.304412 1.198069 6.944998 19.552540 -0.227132 -11.797412 -4.515752 0.235369 -3.120508 -8.614490 0.000000 0.000000 0.000000 2.153431 0.775205 1.847397 -3.434506 -11.366992 33.528168 0.286606 -13.505438 -15.273336 -0.901177 -6.037495 16.896852 -0.451972 2.747440 11.184130 -0.289715 3.613790 1.147345 -0.604320 1.803153 -5.071702 -8.464664 1.395947 -16.451348 0.990767 7.162112 42.196478 3.597673 2.256288 18.387261 0.000000 0.000000 0.000000 1.254957 3.778723 -10.995070 16.359198 -26.005060 3.802233 24.898166 13.316018 -19.675546 0.000000 0.000000 0.000000 -7.125000 0.000000 0.000000 -3.519201 51.461377 0.560625 0.000000 0.000000 0.000000 -6.536683 3.693028 2.956441 -20.111584 -30.776565 -5.588353 -16.515615 0.669893 -9.659069 0.000000 0.000000 0.000000 7.125000 0.000000 0.000000 7.457433 19.955338 4.502527
11.191505 17.815774 4.111258 14.087669 77.379963 369.385336 0.000000 0.000000 0.000000 -19.750928 -5.825694 -5.014503 1.476701 7.678496 21.741842 -0.191507 -12.226229 -5.642684 0.110635 -2.145023 -5.906612 0.000000 0.000000 0.000000 8.658266 2.666398 -1.015605 -3.884409 -12.005002 35.749657 -1.005177 -0.082899 -18.987052 -0.061251 -1.596804 4.392623 -0.754949 2.309667 10.951323 0.767936 3.056865 1.333059 0.766980 1.546506 -4.823944 -8.644490 1.486746 -16.500705 0.928566 7.338774 41.610441 3.601116 2.324704 18.034000 0.000000 0.000000 0.000000 2.999180 3.222588 -17.108568 19.887455 -30.506159 5.474185 24.619441 10.328756 -19.576955 0.000000 0.000000 0.000000 -7.125000 0.000000 0.000000 -3.774303 51.306528 0.586981 0.000000 0.000000 0.000000 -6.272829 2.332974 5.347236 -19.066255 -29.500937 -5.063393 -15.194952 3.643043 -11.599146 0.000000 0.000000 0.000000 7.125000 0.000000 0.000000 8.366682 18.046925 5.421342
11.425272 17.797153 3.793301 11.930294 80.061036 367.805746 0.000000 0.000000 0.000000 -20.123395 -7.178330 -6.322374 1.843641 8.532435 24.343292 -0.220637 -13.657690 -6.597674 0.063594 -1.626793 -4.475426 0.000000 0.000000 0.000000 15.645293 2.499579 -6.206630 -4.405236 -12.680941 38.185479 -1.519711 6.081201 -22.121230 -0.022861 0.976719 -2.684701 -1.481246 2.394932 11.104073 0.693670 3.078208 1.285376 1.085941 1.571155 -4.993323 -8.495674 1.183587 -16.206318 1.994411 6.290981 41.387758 3.852324 2.101591 17.813381 0.000000 0.000000 0.000000 5.790310 2.832707 -18.894738 23.366580 -34.487103 7.344842 24.683394 7.516773 -20.423557 0.000000 0.000000 0.000000 -7.125000 0.000000 0.000000 -3.931996 52.222083 0.699945 0.000000 0.000000 0.000000 -4.353922 2.104542 8.453875 -19.268768 -29.751304 -5.163569 -14.454814 4.022129 -12.007431 0.000000 0.000000 0.000000 7.125000 0.000000 0.000000 8.877884 17.680219 5.833016
11.670905 17.664680 3.465406 19.863660 80.454094 375.407746 0.000000 0.000000 0.000000 -22.560936 -6.263422 -7.714989 2.382580 9.621069 27.758358 -0.322070 -16.172336 -7.677352 0.014033 -0.679563 -1.867931 0.000000 0.000000 0.000000 19.363460 -2.325806 -11.356709 -4.519553 -12.821401 38.703473 -1.580097 12.620709 -22.894116 -0.273407 3.362519 -9.289767 -2.065377 2.872794 11.294776 -0.327651 3.590066 1.380291 0.262285 1.827181 -4.985307 -9.037140 1.016904 -15.840252 2.671868 6.069146 41.842436 4.244490 2.039550 17.941554 0.000000 0.000000 0.000000 7.961803 1.841582 -17.479165 24.806102 -36.005185 8.175663 25.089220 7.184399 -21.099222 0.000000 0.000000 0.000000 -7.125000 0.000000 0.000000 -3.703471 53.018725 0.731336 0.000000 0.000000 0.000000 -2.752328 2.104461 11.596433 -19.996376 -30.637973 -5.529567 -14.852534 3.610961 -11.759547 0.000000 0.000000 0.000000 7.125000 0.000000 0.000000 8.603938 17.906023 5.605536
11.898774 17.610059 3.128261 20.237065 78.930077 375.169578 0.000000 0.000000 0.000000 -24.079232 -4.381750 -7.807447 2.642682 10.092594 29.277349 -0.499152 -18.057134 -7.434211 0.008960 0.588484 1.617252 0.000000 0.000000 0.000000 20.374974 -0.909971 -10.498217 -4.276480 -12.519484 37.595545 -1.403035 5.424129 -21.272630 -0.185207 -2.769394 7.637539 -0.550559 3.531907 11.486380 -0.911249 4.627982 1.557078 -1.353980 2.310050 -4.761037 -9.957580 1.353952 -16.088623 2.280791 7.326058 42.266974 4.493746 2.344656 18.162897 0.000000 0.000000 0.000000 7.496323 1.386693 -12.567876 24.138665 -35.310401 7.786607 25.155430 7.388134 -21.931044 0.000000 0.000000 0.000000 -7.125000 0.000000 0.000000 -3.875930 53.918660 0.850524 0.000000 0.000000 0.000000 -2.405723 1.350876 13.867765 -19.899205 -30.520754 -5.480066 -14.770934 3.179123 -11.442631 0.000000 0.000000 0.000000 7.125000 0.000000 0.000000 8.664956 18.234351 5.582784
12.031598 17.603294 2.770681 14.791546 79.887074 369.150472 0.000000 0.000000 0.000000 -22.862604 -3.662898 -10.125244 3.581367 11.581008 34.265860 -1.060297 -22.727289 -6.703695 0.146750 -2.374096 -6.545154 0.000000 0.000000 0.000000 20.519386 -0.645808 -8.700605 -4.022916 -12.190803 36.410399 -1.312284 4.004963 -20.708383 -0.120509 -2.237678 6.163087 2.625901 3.341078 12.838230 -0.257808 4.843158 1.812741 -2.558842 2.363582 -5.031041 -9.547182 1.842845 -16.800997 0.460758 8.932630 42.218557 3.906409 2.791875 18.398039 0.000000 0.000000 0.000000 5.076491 2.200772 -10.089152 22.643250 -33.696168 6.939427 24.386182 9.338838 -22.678055 0.000000 0.000000 0.000000 -7.125000 0.000000 0.000000 -4.914857 54.558172 1.156184 0.000000 0.000000 0.000000 -3.275933 0.355759 13.415403 -19.280814 -29.766094 -5.169543 -15.114489 2.750341 -10.708642 0.000000 0.000000 0.000000 7.125000 0.000000 0.000000 8.435157 18.961576 5.293772
12.132546 17.660754 2.504871 14.887096 81.951476 368.976476 0.000000 0.000000 0.000000 -19.812995 -4.385875 -12.280671 4.165102 12.376934 37.078859 -2.276035 -28.962628 -3.756689 0.609284 -4.855486 -13.526614 0.000000 0.000000 0.000000 20.697678 0.318789 -6.980940 -3.775258 -11.855198 35.221605 -1.182820 -0.030598 -20.581452 -0.048200 -1.415370 3.892582 2.920298 3.154548 13.951291 0.563436 4.731966 2.136120 -1.911378 2.311299 -5.356837 -9.270365 2.017327 -17.201683 0.112352 9.179404 41.641347 3.727411 2.904353 18.184785 0.000000 0.000000 0.000000 2.778636 4.297726 -11.533428 21.333935 -32.216044 6.227056 22.262272 11.430912 -22.159430 0.000000 0.000000 0.000000 -7.125000 0.000000 0.000000 -6.937688 53.600157 1.472185 0.000000 0.000000 0.000000 -4.424309 -0.136712 12.190717 -18.745856 -29.101542 -4.906645 -15.556595 2.613743 -10.031489 0.000000 0.000000 0.000000 7.125000 0.000000 0.000000 8.133674 19.628255 4.978883
12.317117 17.770442 2.200032 30.313280 83.969113 384.110763 0.000000 0.000000 0.000000 -17.091927 -5.132875 -11.262277 3.454061 11.395984 33.627547 0.172856 -11.402989 -10.320340 0.589964 -4.916236 -13.670069 0.000000 0.000000 0.000000 18.527876 -0.645012 -4.759657 -3.280053 -11.135084 32.736912 -1.073582 -2.396091 -20.573152 -0.003029 -0.353577 0.971618 2.090769 3.052087 14.229443 0.456552 4.480887 2.449540 -1.522839 2.212901 -5.244852 -8.723668 1.940028 -16.839039 0.307493 8.754596 41.624144 3.634350 2.877538 18.103906 0.000000 0.000000 0.000000 1.541847 5.965434 -11.975991 19.733841 -30.320198 5.396349 18.519064 14.792435 -21.074553 0.000000 0.000000 0.000000 -7.125000 0.000000 0.000000 -10.310049 51.807614 1.743663 0.000000 0.000000 0.000000 -4.462041 0.179509 10.331385 -18.260935 -28.490017 -4.673025 -15.234108 2.274229 -9.806081 0.000000 0.000000 0.000000 7.125000 0.000000 0.000000 8.366908 19.877225 5.077707
12.500038 17.874032 1.817857 45.943278 85.907653 400.415317 0.000000 0.000000 0.000000 -12.052529 -6.671387 -10.726389 2.537922 9.906365 28.674250 0.262609 -3.231085 -9.107347 0.213045 -2.967998 -8.189952 0.000000 0.000000 0.000000 17.396018 -1.111314 -3.247642 -2.771730 -10.315932 30.006083 -0.881032 -4.655444 -20.007135 -0.001475 -0.245185 0.673653 2.816611 2.918610 14.145070 0.130990 4.391156 2.234135 -2.255989 2.147485 -5.348786 -8.551096 1.676387 -16.618389 0.683926 8.293628 42.186070 3.729917 2.781212 18.386134 0.000000 0.000000 0.000000 0.674114 6.992940 -8.364335 18.007969 -28.167249 4.553064 17.856980 15.141628 -22.415552 0.000000 0.000000 0.000000 -7.125000 0.000000 0.000000 -11.488787 53.046255 2.297279 0.000000 0.000000 0.000000 -3.915750 1.470524 9.424252 -18.076318 -28.254745 -4.585330 -14.808720 2.361839 -10.013505 0.000000 0.000000 0.000000 7.125000 0.000000 0.000000 8.665892 19.688242 5.297994
12.679457 17.981123 1.347235 68.622026 86.950948 423.658805 0.000000 0.000000 0.000000 -7.607483 -8.737253 -9.610912 1.962639 8.787744 25.133744 -0.086232 5.299441 -0.829173 0.016040 0.786625 2.162017 0.000000 0.000000 0.000000 16.057496 -1.127796 -1.085076 -2.167800 -9.207047 26.445220 -0.630979 -6.830605 -19.023901 0.000000 0.018343 -0.050452 2.989246 2.996145 14.322765 0.124849 4.528314 2.234795 -2.394970 2.210869 -5.424279 -8.491586 1.642667 -16.755202 0.579870 8.325534 42.122418 3.684799 2.800630 18.396723 0.000000 0.000000 0.000000 -0.124617 7.381780 -5.686573 16.746877 -26.522867 3.973626 19.392588 16.422960 -23.519906 0.000000 0.000000 0.000000 -7.125000 0.000000 0.000000 -10.398587 54.447735 2.433529 0.000000 0.000000 0.000000 -4.342450 2.800461 9.900836 -18.123541 -28.315088 -4.607671 -15.185586 1.935219 -10.052850 0.000000 0.000000 0.000000 7.125000 0.000000 0.000000 8.396441 19.627703 5.143305
